<svg xmlns="http://www.w3.org/2000/svg" viewBox="0 0 500 500"><g id="freepik--background-complete--inject-94"><path d="M471.05,198.16H363.37S374.05,169,390.48,169s21.58,20.13,21.58,20.13,11.08-10.93,20.19-10.93,17,14.45,17,14.45S462.14,184.88,471.05,198.16Z" style="fill:#ebebeb"></path><path d="M377,123.18H326.71s11.24-16.29,20.1-16.29,11.47,10.86,11.47,10.86,6.26-5.07,12.05-4.16S377,123.18,377,123.18Z" style="fill:#ebebeb"></path><path d="M127,186.42H29s13.43-30,27.78-31.84S78,176.85,78,176.85s9.26-8.54,16.54-8.54,12.9,11.24,12.9,11.24S122,171.85,127,186.42Z" style="fill:#ebebeb"></path><path d="M209,86.27H142.8s11.37-21.71,23.71-22,18.82,16.43,18.82,16.43S204.53,65.28,209,86.27Z" style="fill:#ebebeb"></path><path d="M280.61,146.34H235.92s7.68-14.65,16-14.87,12.71,11.09,12.71,11.09S277.58,132.17,280.61,146.34Z" style="fill:#ebebeb"></path><path d="M466.68,371.81s-35.6-30-68.07-30c-39.05,0-77.93,30.19-77.93,30.19h146" style="fill:#dbdbdb"></path><path d="M379.92,371.81s-40.35-23.67-68.48-24.24S233.05,372,233.05,372H379.92" style="fill:#ebebeb"></path><path d="M292.66,78.38a20,20,0,0,1,2.38-1,9.72,9.72,0,0,1,2.58-.59,2,2,0,0,1,.81.09,1,1,0,0,1,.24.11,1.11,1.11,0,0,1,.16.12,3.42,3.42,0,0,1,.28.22c.34.31.64.63.94,1,.58.65,1.1,1.33,1.62,2l-.64-.22a18,18,0,0,1,2.64-.56,12.27,12.27,0,0,1,1.38-.1,6.51,6.51,0,0,1,.73.06,3.1,3.1,0,0,1,.39.09,2.93,2.93,0,0,1,.4.19,4.52,4.52,0,0,1,1,1,13,13,0,0,1,.78,1.1,16.53,16.53,0,0,1,1.23,2.36c-.57-.68-1.11-1.36-1.7-2-.28-.32-.58-.64-.88-.92a4.85,4.85,0,0,0-.93-.73,2.72,2.72,0,0,0-1-.1,10.68,10.68,0,0,0-1.23.17c-.83.15-1.68.36-2.49.58l-.41.11-.23-.34c-.48-.68-1-1.35-1.51-2a11.89,11.89,0,0,0-.79-.92c-.07-.06-.14-.14-.21-.19l-.09-.08,0,0a1.22,1.22,0,0,0-.45-.09,13.05,13.05,0,0,0-2.44.23C294.34,78.05,293.51,78.22,292.66,78.38Z" style="fill:#dbdbdb"></path><path d="M302,103.58a29,29,0,0,1,3.19-2.19,15.19,15.19,0,0,1,3.63-1.63,3.21,3.21,0,0,1,1.2-.1,1.67,1.67,0,0,1,.4.1c.11,0,.17.08.26.12s.32.17.48.25a18.56,18.56,0,0,1,1.66,1.13c1.05.79,2,1.64,3,2.52l-1-.15a29.65,29.65,0,0,1,3.72-1.58,17.77,17.77,0,0,1,2-.55,9,9,0,0,1,1.09-.14c.18,0,.41,0,.61,0a4.47,4.47,0,0,1,.63.16,7.35,7.35,0,0,1,1.83,1.16c.52.45,1,.92,1.46,1.4a25.5,25.5,0,0,1,2.5,3.1c-1-.83-2-1.68-3.08-2.45-.52-.39-1-.77-1.57-1.1a6.47,6.47,0,0,0-1.58-.79,3.67,3.67,0,0,0-1.55.15,13.61,13.61,0,0,0-1.76.61c-1.18.46-2.36,1-3.49,1.57l-.57.28-.44-.42c-.89-.86-1.85-1.7-2.79-2.5-.48-.4-1-.79-1.44-1.12-.12-.07-.24-.16-.36-.22l-.16-.09s0,0-.06,0a2,2,0,0,0-.69,0,19,19,0,0,0-3.52,1.06C304.36,102.6,303.19,103.1,302,103.58Z" style="fill:#dbdbdb"></path><path d="M79.68,153.39A18.29,18.29,0,0,1,81.86,152a10.09,10.09,0,0,1,2.45-1,2.09,2.09,0,0,1,.81-.05,1,1,0,0,1,.26.08l.18.08.31.18a13.08,13.08,0,0,1,1.08.79c.68.55,1.31,1.14,1.93,1.74l-.67-.11a19.31,19.31,0,0,1,2.52-1,9.36,9.36,0,0,1,1.34-.32,4.21,4.21,0,0,1,.73-.07,2,2,0,0,1,.41,0,2.44,2.44,0,0,1,.42.12,4.79,4.79,0,0,1,1.19.81c.34.31.65.63,1,1a18.22,18.22,0,0,1,1.6,2.13c-.67-.58-1.33-1.16-2-1.7a12.39,12.39,0,0,0-1-.77,4.1,4.1,0,0,0-1-.56,2.22,2.22,0,0,0-1,.07,8.55,8.55,0,0,0-1.19.36c-.8.29-1.6.63-2.36,1l-.39.17-.28-.29c-.58-.59-1.2-1.17-1.81-1.73a10.94,10.94,0,0,0-.94-.77l-.23-.16-.11-.06s0,0,0,0a1.59,1.59,0,0,0-.46,0,12.88,12.88,0,0,0-2.37.64C81.29,152.79,80.49,153.09,79.68,153.39Z" style="fill:#dbdbdb"></path><path d="M58.55,150a28.12,28.12,0,0,1,2.4-3,14.93,14.93,0,0,1,3-2.63,3.23,3.23,0,0,1,1.12-.46,1.34,1.34,0,0,1,.41,0l.29,0a4.51,4.51,0,0,1,.53.1,16.31,16.31,0,0,1,1.91.58c1.24.44,2.41,1,3.59,1.52l-1,.16a29.66,29.66,0,0,1,3.07-2.62,18,18,0,0,1,1.75-1.11,7.06,7.06,0,0,1,1-.46,4.61,4.61,0,0,1,.59-.15,4.73,4.73,0,0,1,.65,0,7.19,7.19,0,0,1,2.09.57c.63.27,1.23.58,1.82.9a26.44,26.44,0,0,1,3.3,2.22c-1.23-.49-2.44-1-3.67-1.42-.61-.22-1.22-.43-1.83-.59a6.8,6.8,0,0,0-1.74-.29,3.61,3.61,0,0,0-1.43.61,15.12,15.12,0,0,0-1.5,1.1c-1,.79-2,1.67-2.87,2.54l-.46.44-.54-.28c-1.12-.56-2.28-1.07-3.42-1.56a16.8,16.8,0,0,0-1.7-.64l-.4-.1-.19,0s0,0-.06,0a1.92,1.92,0,0,0-.67.21,18.11,18.11,0,0,0-3,2.06C60.53,148.33,59.56,149.15,58.55,150Z" style="fill:#dbdbdb"></path><path d="M271.84,97.39a29,29,0,0,1,2.4-3,14.83,14.83,0,0,1,3-2.63,3.37,3.37,0,0,1,1.13-.46,1.29,1.29,0,0,1,.4,0l.29,0,.53.1c.68.16,1.3.37,1.92.58,1.24.45,2.4,1,3.59,1.53l-1,.16A29.59,29.59,0,0,1,287.14,91a15.32,15.32,0,0,1,1.75-1.11,6.58,6.58,0,0,1,1-.46,3.39,3.39,0,0,1,.59-.15,4.63,4.63,0,0,1,.65,0,7.19,7.19,0,0,1,2.09.57c.63.27,1.23.58,1.81.9A24.52,24.52,0,0,1,298.34,93c-1.24-.49-2.45-1-3.67-1.42a16.2,16.2,0,0,0-1.83-.59,6.39,6.39,0,0,0-1.74-.29,3.61,3.61,0,0,0-1.43.61,12.88,12.88,0,0,0-1.51,1.1c-1,.79-2,1.66-2.86,2.54l-.46.43-.55-.27c-1.11-.56-2.27-1.08-3.41-1.56-.57-.24-1.15-.47-1.7-.64-.14,0-.28-.08-.41-.1l-.18,0s0,0-.07,0a1.88,1.88,0,0,0-.66.21,18.66,18.66,0,0,0-3,2C273.82,95.76,272.84,96.58,271.84,97.39Z" style="fill:#dbdbdb"></path></g><g id="freepik--Shadow--inject-94"><ellipse cx="308.03" cy="457.03" rx="152.1" ry="16.26" style="fill:#ebebeb"></ellipse></g><g id="freepik--Floor--inject-94"><polygon points="32.78 372.07 87.08 371.83 141.39 371.74 250 371.58 358.61 371.74 412.92 371.83 467.22 372.07 412.92 372.32 358.61 372.41 250 372.57 141.39 372.41 87.08 372.32 32.78 372.07" style="fill:#263238"></polygon></g><g id="freepik--Buildings--inject-94"><polygon points="454.57 285.12 439.26 285.12 439.26 303.72 435.32 303.72 435.32 293.19 415.85 293.19 415.85 309.86 413.27 309.86 413.27 270.73 396.34 270.73 396.34 281.48 387.67 281.48 387.67 294.83 385.04 294.83 385.04 286.43 369.65 286.43 369.65 311.51 365.15 311.51 365.15 291.12 351.08 291.12 351.08 275.64 341.51 275.64 341.51 266.82 330.44 266.82 330.44 305.93 326.73 305.93 326.73 289.61 308.49 289.61 308.49 312.97 305.97 312.97 305.97 293.9 287.48 293.9 287.48 276.73 277.12 276.73 277.12 372.11 454.57 372.11 454.57 285.12" style="fill:#ebebeb"></polygon><rect x="450.1" y="287.46" width="2.59" height="3.56" transform="translate(902.8 578.47) rotate(180)" style="fill:#fff"></rect><rect x="445.61" y="287.46" width="2.59" height="3.56" transform="translate(893.82 578.47) rotate(180)" style="fill:#fff"></rect><rect x="441.12" y="287.46" width="2.59" height="3.56" transform="translate(884.84 578.47) rotate(180)" style="fill:#fff"></rect><rect x="450.1" y="292.81" width="2.59" height="3.56" transform="translate(902.8 589.17) rotate(180)" style="fill:#fff"></rect><rect x="445.61" y="292.81" width="2.59" height="3.56" transform="translate(893.82 589.17) rotate(180)" style="fill:#fff"></rect><rect x="441.12" y="292.81" width="2.59" height="3.56" transform="translate(884.84 589.17) rotate(180)" style="fill:#fff"></rect><rect x="450.1" y="298.16" width="2.59" height="3.56" transform="translate(902.8 599.87) rotate(180)" style="fill:#fff"></rect><rect x="445.61" y="298.16" width="2.59" height="3.56" transform="translate(893.82 599.87) rotate(180)" style="fill:#fff"></rect><rect x="441.12" y="298.16" width="2.59" height="3.56" transform="translate(884.84 599.87) rotate(180)" style="fill:#fff"></rect><rect x="450.1" y="303.51" width="2.59" height="3.56" transform="translate(902.8 610.57) rotate(180)" style="fill:#fff"></rect><rect x="445.61" y="303.51" width="2.59" height="3.56" transform="translate(893.82 610.57) rotate(180)" style="fill:#fff"></rect><rect x="441.12" y="303.51" width="2.59" height="3.56" transform="translate(884.84 610.57) rotate(180)" style="fill:#fff"></rect><rect x="360.4" y="293.66" width="2.59" height="2.97" transform="translate(723.39 590.29) rotate(180)" style="fill:#fff"></rect><rect x="355.91" y="293.66" width="2.59" height="2.97" transform="translate(714.41 590.29) rotate(180)" style="fill:#fff"></rect><rect x="351.42" y="293.66" width="2.59" height="2.97" transform="translate(705.43 590.29) rotate(180)" style="fill:#fff"></rect><rect x="360.4" y="298.13" width="2.59" height="2.97" transform="translate(723.39 599.22) rotate(180)" style="fill:#fff"></rect><rect x="355.91" y="298.13" width="2.59" height="2.97" transform="translate(714.41 599.22) rotate(180)" style="fill:#fff"></rect><rect x="351.42" y="298.13" width="2.59" height="2.97" transform="translate(705.43 599.22) rotate(180)" style="fill:#fff"></rect><rect x="360.4" y="302.59" width="2.59" height="2.97" transform="translate(723.39 608.15) rotate(180)" style="fill:#fff"></rect><rect x="355.91" y="302.59" width="2.59" height="2.97" transform="translate(714.41 608.15) rotate(180)" style="fill:#fff"></rect><rect x="351.42" y="302.59" width="2.59" height="2.97" transform="translate(705.43 608.15) rotate(180)" style="fill:#fff"></rect><rect x="360.4" y="307.05" width="2.59" height="2.97" transform="translate(723.39 617.07) rotate(180)" style="fill:#fff"></rect><rect x="355.91" y="307.05" width="2.59" height="2.97" transform="translate(714.41 617.07) rotate(180)" style="fill:#fff"></rect><rect x="351.42" y="307.05" width="2.59" height="2.97" transform="translate(705.43 617.07) rotate(180)" style="fill:#fff"></rect><rect x="360.4" y="311.63" width="2.59" height="2.97" transform="translate(723.39 626.22) rotate(180)" style="fill:#fff"></rect><rect x="355.91" y="311.63" width="2.59" height="2.97" transform="translate(714.41 626.22) rotate(180)" style="fill:#fff"></rect><rect x="351.42" y="311.63" width="2.59" height="2.97" transform="translate(705.43 626.22) rotate(180)" style="fill:#fff"></rect><rect x="360.4" y="316.2" width="2.59" height="2.97" transform="translate(723.39 635.37) rotate(180)" style="fill:#fff"></rect><rect x="355.91" y="316.2" width="2.59" height="2.97" transform="translate(714.41 635.37) rotate(180)" style="fill:#fff"></rect><rect x="351.42" y="316.2" width="2.59" height="2.97" transform="translate(705.43 635.37) rotate(180)" style="fill:#fff"></rect><rect x="360.4" y="320.77" width="2.59" height="2.97" transform="translate(723.39 644.52) rotate(180)" style="fill:#fff"></rect><rect x="355.91" y="320.77" width="2.59" height="2.97" transform="translate(714.41 644.52) rotate(180)" style="fill:#fff"></rect><rect x="351.42" y="320.77" width="2.59" height="2.97" transform="translate(705.43 644.52) rotate(180)" style="fill:#fff"></rect><rect x="360.4" y="325.35" width="2.59" height="2.97" transform="translate(723.39 653.66) rotate(180)" style="fill:#fff"></rect><rect x="355.91" y="325.35" width="2.59" height="2.97" transform="translate(714.41 653.66) rotate(180)" style="fill:#fff"></rect><rect x="351.42" y="325.35" width="2.59" height="2.97" transform="translate(705.43 653.66) rotate(180)" style="fill:#fff"></rect><rect x="418.19" y="295.47" width="14.92" height="2.22" transform="translate(851.3 593.16) rotate(180)" style="fill:#fff"></rect><rect x="418.19" y="299.78" width="14.92" height="2.22" transform="translate(851.3 601.79) rotate(180)" style="fill:#fff"></rect><rect x="418.19" y="304.1" width="14.92" height="2.22" transform="translate(851.3 610.42) rotate(180)" style="fill:#fff"></rect><rect x="418.19" y="308.41" width="14.92" height="2.22" transform="translate(851.3 619.05) rotate(180)" style="fill:#fff"></rect><rect x="418.19" y="312.73" width="14.92" height="2.22" transform="translate(851.3 627.68) rotate(180)" style="fill:#fff"></rect><rect x="418.19" y="317.04" width="14.92" height="2.22" transform="translate(851.3 636.31) rotate(180)" style="fill:#fff"></rect><rect x="418.19" y="321.36" width="14.92" height="2.22" transform="translate(851.3 644.94) rotate(180)" style="fill:#fff"></rect><rect x="418.19" y="325.67" width="14.92" height="2.22" transform="translate(851.3 653.57) rotate(180)" style="fill:#fff"></rect><rect x="310.81" y="291.68" width="13.71" height="2.22" transform="translate(635.33 585.59) rotate(180)" style="fill:#fff"></rect><rect x="310.81" y="296" width="13.71" height="2.22" transform="translate(635.33 594.22) rotate(180)" style="fill:#fff"></rect><rect x="310.81" y="300.31" width="13.71" height="2.22" transform="translate(635.33 602.85) rotate(180)" style="fill:#fff"></rect><rect x="310.81" y="304.63" width="13.71" height="2.22" transform="translate(635.33 611.48) rotate(180)" style="fill:#fff"></rect><rect x="310.81" y="308.94" width="13.71" height="2.22" transform="translate(635.33 620.11) rotate(180)" style="fill:#fff"></rect><rect x="310.81" y="313.26" width="13.71" height="2.22" transform="translate(635.33 628.74) rotate(180)" style="fill:#fff"></rect><rect x="310.81" y="317.57" width="13.71" height="2.22" transform="translate(635.33 637.37) rotate(180)" style="fill:#fff"></rect><rect x="310.81" y="321.89" width="13.71" height="2.22" transform="translate(635.33 646) rotate(180)" style="fill:#fff"></rect><rect x="310.81" y="325.99" width="13.71" height="2.22" transform="translate(635.33 654.2) rotate(180)" style="fill:#fff"></rect><rect x="310.81" y="330.09" width="13.71" height="2.22" transform="translate(635.33 662.4) rotate(180)" style="fill:#fff"></rect><rect x="310.81" y="334.19" width="13.71" height="2.22" transform="translate(635.33 670.6) rotate(180)" style="fill:#fff"></rect><rect x="310.81" y="338.29" width="13.71" height="2.22" transform="translate(635.33 678.8) rotate(180)" style="fill:#fff"></rect><rect x="310.81" y="342.39" width="13.71" height="2.22" transform="translate(635.33 687) rotate(180)" style="fill:#fff"></rect><rect x="288.63" y="296.9" width="14.49" height="2.22" transform="translate(591.75 596.02) rotate(180)" style="fill:#fff"></rect><rect x="288.63" y="301.21" width="14.49" height="2.22" transform="translate(591.75 604.65) rotate(180)" style="fill:#fff"></rect><rect x="288.63" y="305.53" width="14.49" height="2.22" transform="translate(591.75 613.28) rotate(180)" style="fill:#fff"></rect><rect x="288.63" y="309.84" width="14.49" height="2.22" transform="translate(591.75 621.91) rotate(180)" style="fill:#fff"></rect><rect x="288.63" y="314.16" width="14.49" height="2.22" transform="translate(591.75 630.53) rotate(180)" style="fill:#fff"></rect><rect x="288.63" y="318.47" width="14.49" height="2.22" transform="translate(591.75 639.16) rotate(180)" style="fill:#fff"></rect><rect x="288.63" y="322.78" width="14.49" height="2.22" transform="translate(591.75 647.79) rotate(180)" style="fill:#fff"></rect><rect x="288.63" y="327.1" width="14.49" height="2.22" transform="translate(591.75 656.42) rotate(180)" style="fill:#fff"></rect><rect x="288.63" y="330.96" width="14.49" height="2.22" transform="translate(591.75 664.15) rotate(180)" style="fill:#fff"></rect><rect x="288.63" y="334.82" width="14.49" height="2.22" transform="translate(591.75 671.87) rotate(180)" style="fill:#fff"></rect><rect x="288.63" y="338.69" width="14.49" height="2.22" transform="translate(591.75 679.59) rotate(180)" style="fill:#fff"></rect><rect x="375.93" y="288.45" width="4.61" height="2.15" transform="translate(756.47 579.04) rotate(180)" style="fill:#fff"></rect><rect x="375.93" y="292.61" width="4.61" height="2.15" transform="translate(756.47 587.37) rotate(180)" style="fill:#fff"></rect><rect x="375.93" y="296.78" width="4.61" height="2.15" transform="translate(756.47 595.71) rotate(180)" style="fill:#fff"></rect><rect x="375.93" y="300.95" width="4.61" height="2.15" transform="translate(756.47 604.04) rotate(180)" style="fill:#fff"></rect><rect x="375.93" y="305.11" width="4.61" height="2.15" transform="translate(756.47 612.37) rotate(180)" style="fill:#fff"></rect><rect x="375.93" y="309.28" width="4.61" height="2.15" transform="translate(756.47 620.71) rotate(180)" style="fill:#fff"></rect><rect x="375.93" y="313.45" width="4.61" height="2.15" transform="translate(756.47 629.04) rotate(180)" style="fill:#fff"></rect><rect x="375.93" y="317.61" width="4.61" height="2.15" transform="translate(756.47 637.37) rotate(180)" style="fill:#fff"></rect><rect x="369.66" y="288.45" width="4.61" height="2.15" transform="translate(743.93 579.04) rotate(180)" style="fill:#fff"></rect><rect x="369.66" y="292.61" width="4.61" height="2.15" transform="translate(743.93 587.37) rotate(180)" style="fill:#fff"></rect><rect x="369.66" y="296.78" width="4.61" height="2.15" transform="translate(743.93 595.71) rotate(180)" style="fill:#fff"></rect><rect x="369.66" y="300.95" width="4.61" height="2.15" transform="translate(743.93 604.04) rotate(180)" style="fill:#fff"></rect><rect x="369.66" y="305.11" width="4.61" height="2.15" transform="translate(743.93 612.37) rotate(180)" style="fill:#fff"></rect><rect x="369.66" y="309.28" width="4.61" height="2.15" transform="translate(743.93 620.71) rotate(180)" style="fill:#fff"></rect><rect x="369.66" y="313.45" width="4.61" height="2.15" transform="translate(743.93 629.04) rotate(180)" style="fill:#fff"></rect><rect x="369.66" y="317.61" width="4.61" height="2.15" transform="translate(743.93 637.37) rotate(180)" style="fill:#fff"></rect><rect x="405.9" y="272.99" width="4.8" height="3.39" transform="translate(816.6 549.36) rotate(180)" style="fill:#fff"></rect><rect x="398.75" y="272.99" width="4.8" height="3.39" transform="translate(802.29 549.36) rotate(180)" style="fill:#fff"></rect><rect x="405.9" y="277.96" width="4.8" height="3.39" transform="translate(816.6 559.31) rotate(180)" style="fill:#fff"></rect><rect x="398.75" y="277.96" width="4.8" height="3.39" transform="translate(802.29 559.31) rotate(180)" style="fill:#fff"></rect><rect x="405.9" y="282.94" width="4.8" height="3.39" transform="translate(816.6 569.26) rotate(180)" style="fill:#fff"></rect><rect x="398.75" y="282.94" width="4.8" height="3.39" transform="translate(802.29 569.26) rotate(180)" style="fill:#fff"></rect><rect x="405.9" y="287.91" width="4.8" height="3.39" transform="translate(816.6 579.21) rotate(180)" style="fill:#fff"></rect><rect x="398.75" y="287.91" width="4.8" height="3.39" transform="translate(802.29 579.21) rotate(180)" style="fill:#fff"></rect><rect x="405.9" y="292.89" width="4.8" height="3.39" transform="translate(816.6 589.16) rotate(180)" style="fill:#fff"></rect><rect x="398.75" y="292.89" width="4.8" height="3.39" transform="translate(802.29 589.16) rotate(180)" style="fill:#fff"></rect><rect x="405.9" y="297.86" width="4.8" height="3.39" transform="translate(816.6 599.11) rotate(180)" style="fill:#fff"></rect><rect x="398.75" y="297.86" width="4.8" height="3.39" transform="translate(802.29 599.11) rotate(180)" style="fill:#fff"></rect><rect x="405.9" y="302.84" width="4.8" height="3.39" transform="translate(816.6 609.06) rotate(180)" style="fill:#fff"></rect><rect x="398.75" y="302.84" width="4.8" height="3.39" transform="translate(802.29 609.06) rotate(180)" style="fill:#fff"></rect><rect x="405.9" y="307.81" width="4.8" height="3.39" transform="translate(816.6 619.01) rotate(180)" style="fill:#fff"></rect><rect x="398.75" y="307.81" width="4.8" height="3.39" transform="translate(802.29 619.01) rotate(180)" style="fill:#fff"></rect><rect x="389.88" y="282.94" width="4.8" height="3.39" transform="translate(784.56 569.26) rotate(180)" style="fill:#fff"></rect><rect x="389.88" y="287.91" width="4.8" height="3.39" transform="translate(784.56 579.21) rotate(180)" style="fill:#fff"></rect><rect x="389.88" y="292.89" width="4.8" height="3.39" transform="translate(784.56 589.16) rotate(180)" style="fill:#fff"></rect><rect x="389.88" y="297.86" width="4.8" height="3.39" transform="translate(784.56 599.11) rotate(180)" style="fill:#fff"></rect><rect x="389.88" y="302.84" width="4.8" height="3.39" transform="translate(784.56 609.06) rotate(180)" style="fill:#fff"></rect><rect x="389.88" y="307.81" width="4.8" height="3.39" transform="translate(784.56 619.01) rotate(180)" style="fill:#fff"></rect><rect x="405.9" y="312.73" width="4.8" height="3.39" transform="translate(816.6 628.84) rotate(180)" style="fill:#fff"></rect><rect x="398.75" y="312.73" width="4.8" height="3.39" transform="translate(802.29 628.84) rotate(180)" style="fill:#fff"></rect><rect x="389.88" y="312.73" width="4.8" height="3.39" transform="translate(784.56 628.84) rotate(180)" style="fill:#fff"></rect><rect x="405.9" y="317.64" width="4.8" height="3.39" transform="translate(816.6 638.67) rotate(180)" style="fill:#fff"></rect><rect x="398.75" y="317.64" width="4.8" height="3.39" transform="translate(802.29 638.67) rotate(180)" style="fill:#fff"></rect><rect x="389.88" y="317.64" width="4.8" height="3.39" transform="translate(784.56 638.67) rotate(180)" style="fill:#fff"></rect><rect x="405.9" y="322.56" width="4.8" height="3.39" transform="translate(816.6 648.5) rotate(180)" style="fill:#fff"></rect><rect x="398.75" y="322.56" width="4.8" height="3.39" transform="translate(802.29 648.5) rotate(180)" style="fill:#fff"></rect><rect x="389.88" y="322.56" width="4.8" height="3.39" transform="translate(784.56 648.5) rotate(180)" style="fill:#fff"></rect><rect x="405.9" y="327.47" width="4.8" height="3.39" transform="translate(816.6 658.33) rotate(180)" style="fill:#fff"></rect><rect x="398.75" y="327.47" width="4.8" height="3.39" transform="translate(802.29 658.33) rotate(180)" style="fill:#fff"></rect><rect x="389.88" y="327.47" width="4.8" height="3.39" transform="translate(784.56 658.33) rotate(180)" style="fill:#fff"></rect><rect x="405.9" y="332.39" width="4.8" height="3.39" transform="translate(816.6 668.17) rotate(180)" style="fill:#fff"></rect><rect x="398.75" y="332.39" width="4.8" height="3.39" transform="translate(802.29 668.17) rotate(180)" style="fill:#fff"></rect><rect x="389.88" y="332.39" width="4.8" height="3.39" transform="translate(784.56 668.17) rotate(180)" style="fill:#fff"></rect><rect x="346.54" y="277.82" width="2.59" height="2.97" transform="translate(695.66 558.61) rotate(180)" style="fill:#fff"></rect><rect x="342.05" y="277.82" width="2.59" height="2.97" transform="translate(686.68 558.61) rotate(180)" style="fill:#fff"></rect><rect x="346.54" y="282.28" width="2.59" height="2.97" transform="translate(695.66 567.53) rotate(180)" style="fill:#fff"></rect><rect x="342.05" y="282.28" width="2.59" height="2.97" transform="translate(686.68 567.53) rotate(180)" style="fill:#fff"></rect><rect x="346.54" y="286.75" width="2.59" height="2.97" transform="translate(695.66 576.46) rotate(180)" style="fill:#fff"></rect><rect x="342.05" y="286.75" width="2.59" height="2.97" transform="translate(686.68 576.46) rotate(180)" style="fill:#fff"></rect><rect x="346.54" y="291.21" width="2.59" height="2.97" transform="translate(695.66 585.39) rotate(180)" style="fill:#fff"></rect><rect x="342.05" y="291.21" width="2.59" height="2.97" transform="translate(686.68 585.39) rotate(180)" style="fill:#fff"></rect><rect x="346.54" y="295.78" width="2.59" height="2.97" transform="translate(695.66 594.53) rotate(180)" style="fill:#fff"></rect><rect x="342.05" y="295.78" width="2.59" height="2.97" transform="translate(686.68 594.53) rotate(180)" style="fill:#fff"></rect><rect x="346.54" y="300.36" width="2.59" height="2.97" transform="translate(695.66 603.68) rotate(180)" style="fill:#fff"></rect><rect x="342.05" y="300.36" width="2.59" height="2.97" transform="translate(686.68 603.68) rotate(180)" style="fill:#fff"></rect><rect x="346.54" y="304.93" width="2.59" height="2.97" transform="translate(695.66 612.83) rotate(180)" style="fill:#fff"></rect><rect x="342.05" y="304.93" width="2.59" height="2.97" transform="translate(686.68 612.83) rotate(180)" style="fill:#fff"></rect><rect x="346.54" y="309.51" width="2.59" height="2.97" transform="translate(695.66 621.98) rotate(180)" style="fill:#fff"></rect><rect x="342.05" y="309.51" width="2.59" height="2.97" transform="translate(686.68 621.98) rotate(180)" style="fill:#fff"></rect><rect x="346.54" y="314.13" width="2.59" height="2.97" transform="translate(695.66 631.22) rotate(180)" style="fill:#fff"></rect><rect x="342.05" y="314.13" width="2.59" height="2.97" transform="translate(686.68 631.22) rotate(180)" style="fill:#fff"></rect><rect x="346.54" y="318.75" width="2.59" height="2.97" transform="translate(695.66 640.47) rotate(180)" style="fill:#fff"></rect><rect x="342.05" y="318.75" width="2.59" height="2.97" transform="translate(686.68 640.47) rotate(180)" style="fill:#fff"></rect><rect x="346.54" y="323.37" width="2.59" height="2.97" transform="translate(695.66 649.71) rotate(180)" style="fill:#fff"></rect><rect x="342.05" y="323.37" width="2.59" height="2.97" transform="translate(686.68 649.71) rotate(180)" style="fill:#fff"></rect><rect x="346.54" y="328" width="2.59" height="2.97" transform="translate(695.66 658.96) rotate(180)" style="fill:#fff"></rect><rect x="342.05" y="328" width="2.59" height="2.97" transform="translate(686.68 658.96) rotate(180)" style="fill:#fff"></rect><rect x="283.27" y="278.3" width="2.59" height="3.49" transform="translate(569.12 560.1) rotate(180)" style="fill:#fff"></rect><rect x="278.78" y="278.3" width="2.59" height="3.49" transform="translate(560.14 560.1) rotate(180)" style="fill:#fff"></rect><rect x="283.27" y="283.56" width="2.59" height="3.49" transform="translate(569.12 570.62) rotate(180)" style="fill:#fff"></rect><rect x="278.78" y="283.56" width="2.59" height="3.49" transform="translate(560.14 570.62) rotate(180)" style="fill:#fff"></rect><rect x="283.27" y="288.82" width="2.59" height="3.49" transform="translate(569.12 581.13) rotate(180)" style="fill:#fff"></rect><rect x="278.78" y="288.82" width="2.59" height="3.49" transform="translate(560.14 581.13) rotate(180)" style="fill:#fff"></rect><rect x="283.27" y="294.08" width="2.59" height="3.49" transform="translate(569.12 591.65) rotate(180)" style="fill:#fff"></rect><rect x="278.78" y="294.08" width="2.59" height="3.49" transform="translate(560.14 591.65) rotate(180)" style="fill:#fff"></rect><rect x="283.27" y="299.47" width="2.59" height="3.49" transform="translate(569.12 602.43) rotate(180)" style="fill:#fff"></rect><rect x="278.78" y="299.47" width="2.59" height="3.49" transform="translate(560.14 602.43) rotate(180)" style="fill:#fff"></rect><rect x="283.27" y="304.85" width="2.59" height="3.49" transform="translate(569.12 613.2) rotate(180)" style="fill:#fff"></rect><rect x="278.78" y="304.85" width="2.59" height="3.49" transform="translate(560.14 613.2) rotate(180)" style="fill:#fff"></rect><rect x="283.27" y="310.24" width="2.59" height="3.49" transform="translate(569.12 623.98) rotate(180)" style="fill:#fff"></rect><rect x="278.78" y="310.24" width="2.59" height="3.49" transform="translate(560.14 623.98) rotate(180)" style="fill:#fff"></rect><rect x="283.27" y="315.63" width="2.59" height="3.49" transform="translate(569.12 634.76) rotate(180)" style="fill:#fff"></rect><rect x="278.78" y="315.63" width="2.59" height="3.49" transform="translate(560.14 634.76) rotate(180)" style="fill:#fff"></rect><rect x="283.27" y="321.08" width="2.59" height="3.49" transform="translate(569.12 645.65) rotate(180)" style="fill:#fff"></rect><rect x="278.78" y="321.08" width="2.59" height="3.49" transform="translate(560.14 645.65) rotate(180)" style="fill:#fff"></rect><rect x="283.27" y="326.52" width="2.59" height="3.49" transform="translate(569.12 656.54) rotate(180)" style="fill:#fff"></rect><rect x="278.78" y="326.52" width="2.59" height="3.49" transform="translate(560.14 656.54) rotate(180)" style="fill:#fff"></rect><rect x="283.27" y="331.97" width="2.59" height="3.49" transform="translate(569.12 667.43) rotate(180)" style="fill:#fff"></rect><rect x="278.78" y="331.97" width="2.59" height="3.49" transform="translate(560.14 667.43) rotate(180)" style="fill:#fff"></rect><rect x="283.27" y="337.41" width="2.59" height="3.49" transform="translate(569.12 678.32) rotate(180)" style="fill:#fff"></rect><rect x="278.78" y="337.41" width="2.59" height="3.49" transform="translate(560.14 678.32) rotate(180)" style="fill:#fff"></rect><rect x="336.93" y="277.82" width="2.59" height="2.97" transform="translate(676.46 558.61) rotate(180)" style="fill:#fff"></rect><rect x="332.44" y="277.82" width="2.59" height="2.97" transform="translate(667.47 558.61) rotate(180)" style="fill:#fff"></rect><rect x="336.93" y="273.24" width="2.59" height="2.97" transform="translate(676.46 549.46) rotate(180)" style="fill:#fff"></rect><rect x="332.44" y="273.24" width="2.59" height="2.97" transform="translate(667.47 549.46) rotate(180)" style="fill:#fff"></rect><rect x="336.93" y="268.67" width="2.59" height="2.97" transform="translate(676.46 540.3) rotate(180)" style="fill:#fff"></rect><rect x="332.44" y="268.67" width="2.59" height="2.97" transform="translate(667.47 540.3) rotate(180)" style="fill:#fff"></rect><rect x="336.93" y="282.28" width="2.59" height="2.97" transform="translate(676.46 567.53) rotate(180)" style="fill:#fff"></rect><rect x="332.44" y="282.28" width="2.59" height="2.97" transform="translate(667.47 567.53) rotate(180)" style="fill:#fff"></rect><rect x="336.93" y="286.75" width="2.59" height="2.97" transform="translate(676.46 576.46) rotate(180)" style="fill:#fff"></rect><rect x="332.44" y="286.75" width="2.59" height="2.97" transform="translate(667.47 576.46) rotate(180)" style="fill:#fff"></rect><rect x="336.93" y="291.21" width="2.59" height="2.97" transform="translate(676.46 585.39) rotate(180)" style="fill:#fff"></rect><rect x="332.44" y="291.21" width="2.59" height="2.97" transform="translate(667.47 585.39) rotate(180)" style="fill:#fff"></rect><rect x="336.93" y="295.78" width="2.59" height="2.97" transform="translate(676.46 594.53) rotate(180)" style="fill:#fff"></rect><rect x="332.44" y="295.78" width="2.59" height="2.97" transform="translate(667.47 594.53) rotate(180)" style="fill:#fff"></rect><rect x="336.93" y="300.36" width="2.59" height="2.97" transform="translate(676.46 603.68) rotate(180)" style="fill:#fff"></rect><rect x="332.44" y="300.36" width="2.59" height="2.97" transform="translate(667.47 603.68) rotate(180)" style="fill:#fff"></rect><rect x="336.93" y="304.93" width="2.59" height="2.97" transform="translate(676.46 612.83) rotate(180)" style="fill:#fff"></rect><rect x="332.44" y="304.93" width="2.59" height="2.97" transform="translate(667.47 612.83) rotate(180)" style="fill:#fff"></rect><rect x="336.93" y="309.51" width="2.59" height="2.97" transform="translate(676.46 621.98) rotate(180)" style="fill:#fff"></rect><rect x="332.44" y="309.51" width="2.59" height="2.97" transform="translate(667.47 621.98) rotate(180)" style="fill:#fff"></rect><rect x="336.93" y="314.13" width="2.59" height="2.97" transform="translate(676.46 631.22) rotate(180)" style="fill:#fff"></rect><rect x="332.44" y="314.13" width="2.59" height="2.97" transform="translate(667.47 631.22) rotate(180)" style="fill:#fff"></rect><rect x="336.93" y="318.75" width="2.59" height="2.97" transform="translate(676.46 640.47) rotate(180)" style="fill:#fff"></rect><rect x="332.44" y="318.75" width="2.59" height="2.97" transform="translate(667.47 640.47) rotate(180)" style="fill:#fff"></rect><rect x="336.93" y="323.37" width="2.59" height="2.97" transform="translate(676.46 649.71) rotate(180)" style="fill:#fff"></rect><rect x="332.44" y="323.37" width="2.59" height="2.97" transform="translate(667.47 649.71) rotate(180)" style="fill:#fff"></rect><rect x="336.93" y="328" width="2.59" height="2.97" transform="translate(676.46 658.96) rotate(180)" style="fill:#fff"></rect><rect x="332.44" y="328" width="2.59" height="2.97" transform="translate(667.47 658.96) rotate(180)" style="fill:#fff"></rect></g><g id="freepik--Characters--inject-94"><path d="M282.39,158c7.18,11.54,10.29,38,1.57,51.58-10.38,16.19-28.52,21.1-40.37,13.53-10.76-6.88-12.83-20.11-6.21-27.81,6.4-7.45,15.17-8.5,18.63-15.7,1.65-3.45,1.71-9.9,3.74-15.2C262.22,157.92,276.8,149,282.39,158Z" style="fill:#263238"></path><path d="M235.27,196.9a19.21,19.21,0,0,1,3.68-4.63,24,24,0,0,1,4.61-3.41c1.66-.94,3.31-1.92,4.93-3a25.56,25.56,0,0,0,4.57-3.73,16.73,16.73,0,0,0,1.91-2.38,13.39,13.39,0,0,0,1.31-2.85,57.18,57.18,0,0,0,1.42-6,26.82,26.82,0,0,1,1.83-5.8,17.92,17.92,0,0,1,3.68-4.76,16.62,16.62,0,0,0-4,4.59,25.88,25.88,0,0,0-2.05,5.83c-.51,2-.87,4-1.52,5.93a12.23,12.23,0,0,1-1.25,2.66,17,17,0,0,1-1.84,2.24c-2.66,2.83-6,4.69-9.27,6.73a24.6,24.6,0,0,0-4.58,3.67A18.4,18.4,0,0,0,235.27,196.9Z" style="fill:#263238"></path><path d="M271.75,199.23c6.14,8.19,38.36,23.61,47.8,22.87,14-1.1,32-9.73,38.25-13.43,2.74-1.61-5.64-22-8.78-20.74-6.73,2.72-27.09,11.67-29.61,11.94s-23-2.79-33.66-5.69C271.39,190.29,268.64,195.08,271.75,199.23Z" style="fill:#c95f50"></path><path d="M350.81,213.93c-.08-.56-7.56-25.37-7.56-25.37s-20.59,9.81-23.58,10.49-31.56-4.64-41.13-6.82c-10.23-2.33-13.6,5.22.21,13.83s31.31,16.57,39.33,16.87C325.85,223.21,350.81,213.93,350.81,213.93Z" style="fill:#9327FF"></path><path d="M344.67,214.59c-3.75-9.47-6.26-20-6.83-21.79a.07.07,0,0,1,.14,0c.46,1.79,4.63,13.5,6.84,21.78C344.85,214.65,344.71,214.68,344.67,214.59Z" style="fill:#263238"></path><path d="M325.7,221.83a33.26,33.26,0,0,1-7.62,1.1c-8-.3-25.51-8.27-39.33-16.87-4.61-2.88-7.31-5.63-8.48-7.94Z" style="opacity:0.1"></path><path d="M407.56,456.52c-1.95.62-57.53-.1-59.62-1.47-.81-.51-1.18-8.61-1.34-18.42v-.3c0-2-.07-4.1-.07-6.21,0-.29,0-.58,0-.87l2.7-28.83,37.17.37-3.67,28.56,0,1.13-.22,5.91,0,.61s21.14,9.79,23.29,11.54S409.51,455.89,407.56,456.52Z" style="fill:#c95f50"></path><path d="M407.56,456.52c-1.95.62-57.53-.1-59.62-1.47-.81-.51-1.18-8.61-1.34-18.42v-.3c0-2-.07-4.1-.07-6.21,0-.29,0-.58,0-.87l36.2.1,0,1.13-.22,5.91,0,.61s21.14,9.79,23.29,11.54S409.51,455.89,407.56,456.52Z" style="fill:#ebebeb"></path><path d="M407.56,456.51c-1,.32-16.1.29-30.86,0-3-.06-5.92-.12-8.73-.2-10.53-.29-19.22-.72-20-1.25s-1.16-8.38-1.33-18v-.41c0-.1,0-.21,0-.31h0l35.82.07,0,.61s21.15,9.79,23.29,11.54S409.51,455.89,407.56,456.51Z" style="fill:#455a64"></path><path d="M407,454.35c-9.37-.35-47.18-.88-56.46-.52-.08,0-.08.06,0,.06,9.27.55,47.08.78,56.45.62C407.15,454.5,407.15,454.36,407,454.35Z" style="fill:#263238"></path><path d="M386.45,436.55c-3.68-.74-8.2-.23-11.05,2.36-.11.1,0,.25.16.22A52,52,0,0,1,386.43,437,.23.23,0,0,0,386.45,436.55Z" style="fill:#263238"></path><path d="M389.09,438.18c-3.68-.73-8.2-.22-11,2.37-.11.1,0,.25.16.22a51.37,51.37,0,0,1,10.87-2.12A.24.24,0,0,0,389.09,438.18Z" style="fill:#263238"></path><path d="M391.73,439.82c-3.68-.73-8.2-.23-11.05,2.36-.11.1,0,.26.16.22a51.36,51.36,0,0,1,10.87-2.11A.24.24,0,0,0,391.73,439.82Z" style="fill:#263238"></path><path d="M376.7,456.5c-3-.06-5.92-.12-8.73-.2-10.53-.29-19.22-.72-20-1.25s-1.16-8.38-1.33-18v-.41c0-.1,0-.21,0-.31h0C351.54,439.76,368.84,451.27,376.7,456.5Z" style="fill:#263238"></path><path d="M384.9,436.52h-40s8.06-93.49,7.75-95.12c-.4-2.09-2.77-11.55-5.91-23.91-1-3.87-2-8-3.16-12.32-3-11.63-6.27-24.34-9.14-35.4-4.3-16.57-7.66-29.44-7.66-29.44h33.93s3.95,12.53,8.93,28.83c8.12,26.5,19,63,20,71.84C391.38,355.32,384.9,436.52,384.9,436.52Z" style="fill:#263238"></path><path d="M383.12,429.69c-6.11-.13-4.35-.18-10.47-.24-3,0-22.65-.2-25.44.26a.07.07,0,0,0,0,.13c2.79.46,22.45.29,25.44.26,6.12-.06,4.36-.11,10.47-.24A.09.09,0,1,0,383.12,429.69Z" style="fill:#37474f"></path><path d="M360.15,335.69c-1.32-5.79-3.28-11.46-5-17.14Q350,301.24,344.7,284q-2.64-8.64-5.28-17.28c-.9-2.91-1.79-5.82-2.7-8.72s-1.91-5.66-2.71-8.53c-.33-1.16-.51-.52-.09,1,.85,3,1.68,6,2.55,8.95q2.58,8.85,5.21,17.68,5.2,17.6,10.5,35.16,2.64,8.81,5.29,17.61a71.37,71.37,0,0,1,2.17,8.52,39.7,39.7,0,0,1,.35,9.11c-.38,6.13-1.09,12.24-1.66,18.35s-1.13,12.25-1.7,18.37q-1.69,18.27-3.35,36.55c-.14,1.55-.28,3.09-.39,4.64,0,.52.74.48.79,0,1.32-12.05,2.33-24.14,3.46-36.2s2.25-24,3.38-36c.28-3,.6-6,.6-9.07A37.6,37.6,0,0,0,360.15,335.69Z" style="fill:#37474f"></path><path d="M356.82,240.33c-2.35,18.21-6.84,52.37-10.11,77.16-7.65-30-20-77.16-20-77.16Z" style="fill:#37474f"></path><path d="M365.16,457.05c-2,.64-57.53.12-59.63-1.25-.81-.5-1.2-8.6-1.4-18.41,0-.1,0-.2,0-.3,0-2-.08-4.11-.09-6.21,0-.29,0-.58,0-.87-.13-14.15.89-28.84.89-28.84l36.33.24-1,28.57,0,1.13L340,437l0,.61s21.19,9.71,23.34,11.46S367.1,456.42,365.16,457.05Z" style="fill:#c95f50"></path><path d="M365.16,457.05c-2,.64-57.53.12-59.63-1.25-.81-.5-1.2-8.6-1.4-18.41,0-.1,0-.2,0-.3,0-2-.08-4.11-.09-6.21,0-.29,0-.58,0-.87l36.2,0,0,1.13L340,437l0,.61s21.19,9.71,23.34,11.46S367.1,456.42,365.16,457.05Z" style="fill:#ebebeb"></path><path d="M365.16,457.05c-2,.64-57.53.12-59.63-1.25-.81-.5-1.2-8.6-1.4-18.41,0-.1,0-.2,0-.3L340,437l0,.61s21.19,9.71,23.34,11.46S367.1,456.42,365.16,457.05Z" style="fill:#455a64"></path><path d="M364.55,454.89c-9.37-.32-47.18-.71-56.46-.32-.08,0-.08.06,0,.06,9.28.52,47.09.61,56.46.41C364.74,455,364.74,454.9,364.55,454.89Z" style="fill:#263238"></path><path d="M344,437.16c-3.68-.72-8.19-.2-11,2.4-.11.1,0,.26.15.22A52.12,52.12,0,0,1,344,437.62.23.23,0,0,0,344,437.16Z" style="fill:#263238"></path><path d="M346.62,438.79c-3.68-.73-8.19-.2-11,2.4-.11.1,0,.25.16.22a52.12,52.12,0,0,1,10.86-2.16A.23.23,0,0,0,346.62,438.79Z" style="fill:#263238"></path><path d="M349.27,440.42c-3.68-.73-8.2-.2-11,2.4-.11.1,0,.25.15.22a51.57,51.57,0,0,1,10.87-2.16A.23.23,0,0,0,349.27,440.42Z" style="fill:#263238"></path><path d="M359.58,240.33s-.78,16.22-4.5,29.08c-.3,1.06-.62,2.11-1,3.11a59.59,59.59,0,0,0-9.77,5s-.4,13.05-.79,27.62c-.43,16.28-.88,34.44-.79,38.29.34,14.41-1.8,93.64-1.8,93.64l-40,.16s7.24-88.48,7.19-93.76c-.08-8.48,1.94-46,3.49-73.33.95-16.85,1.74-29.84,1.74-29.84Z" style="fill:#263238"></path><path d="M339.59,430c-6.11-.1-4.36-.15-10.47-.19-3,0-22.66-.1-25.45.37-.06,0-.06.12,0,.13,2.8.45,22.46.19,25.45.15,6.11-.08,4.36-.12,10.47-.28C339.7,430.16,339.7,430,339.59,430Z" style="fill:#37474f"></path><path d="M316.72,246.12c-.74,22.33-1.52,44.66-2.52,67s-2.35,44.78-4.22,67.12c-1.05,12.48-2,30-3.38,42.48,0,.09.12.12.13,0,2.91-22.14,4.53-49.53,6-71.81s2.4-44.61,3.16-66.92c.43-12.63.76-25.26,1.14-37.88C317,245.93,316.72,246,316.72,246.12Z" style="fill:#37474f"></path><path d="M355.78,271.55a74.6,74.6,0,0,0-11.44,6,.13.13,0,1,0,.12.23c3.86-1.87,7.8-3.68,11.55-5.77A.26.26,0,0,0,355.78,271.55Z" style="fill:#37474f"></path><path d="M356,257.78c-.26,1.43-.61,2.83-.92,4.25s-.5,2.68-.85,4a6.73,6.73,0,0,1-1.86,3.34c-.52.49-1.09.92-1.64,1.36-.3.24-.63.47-.94.71,0-.19.08-.38.11-.57.09-.54.19-1.08.28-1.62q.3-1.8.57-3.6c.36-2.36.7-4.75,1.19-7.08,0-.1-.13-.13-.15,0-.59,2.32-1.24,4.61-1.75,6.94-.25,1.15-1.15,6.8-1.19,7.2s-.07.83-.09,1.24a5.39,5.39,0,0,0,0,1.27c0,.11.15.09.2,0h0a4.75,4.75,0,0,0,.36-1.22c.1-.41.2-.82.27-1.23,0-.14.05-.3.07-.45.55-.34,1.07-.78,1.59-1.16s1.13-.8,1.67-1.25a6.42,6.42,0,0,0,2-3.17,23.34,23.34,0,0,0,.66-4.07c.18-1.6.31-3.22.54-4.82C356.16,257.73,356,257.69,356,257.78Z" style="fill:#37474f"></path><path d="M342.78,197.06c9.27,9.32,24.8,26.09,32.19,29.24,5.7,2.43,14.74-.25,16.42-1.36C401.87,218,411,203,416.31,192.48c1.59-3.14-16.59-14-19.18-11.31-6.06,6.39-18.55,23-19.58,22.89-3.8-.43-17.11-8.69-29.24-15C334.76,182.1,338.29,192.53,342.78,197.06Z" style="fill:#c95f50"></path><path d="M389.88,150.7l27.2-8a1,1,0,0,1,1.5.84l.55,14.18a2.29,2.29,0,0,1-1.38,2l-27.2,8c-.8.32-1.47-.06-1.5-.85l-.55-14.17A2.29,2.29,0,0,1,389.88,150.7Z" style="fill:#37474f"></path><path d="M389.93,152.38l27.2-8c.79-.32,1.47.05,1.5.85l.55,14.17a2.29,2.29,0,0,1-1.38,2l-27.2,8c-.8.32-1.47-.06-1.5-.85l-.55-14.17A2.32,2.32,0,0,1,389.93,152.38Z" style="fill:#455a64"></path><path d="M391.34,156.22a1.2,1.2,0,1,0-1.28-1.13A1.21,1.21,0,0,0,391.34,156.22Z" style="fill:#263238"></path><path d="M422.11,172.63c-.17-7.26-1.33-9.09,1.78-15.29,2-4.07.32-7.12-3.53-4.36-6.29,4.52-8,13.92-7.7,17.36Z" style="fill:#c95f50"></path><path d="M416.31,192.48s5.24-8.86,5.83-16.61c.4-5.35,0-17.11-13.19-26.27-3.12-2.17-9.11-3.06-5.3,2.35,2.71,3.83,5.58,5.45,6.75,8,0,0-7.75-.22-9.81,3a70.23,70.23,0,0,0-4.77,8.78,15.14,15.14,0,0,0,1.56,1s-1.63,3.18-.25,8.44Z" style="fill:#c95f50"></path><path d="M421.7,170.7c-1.68-2.26-5.34-7-9.68-9.79-4.81-3.13-14.93-7.87-17.2-4.29-1.67,2.62,2,4.77,2,4.77s-4.59-1.08-5.58,1.62c-.9,2.46,2.07,4,2.07,4s-2.9-.17-3.31,2.37c-.5,3,5.66,2.91,7.83,6.43C398.34,176.55,421.7,170.7,421.7,170.7Z" style="fill:#c95f50"></path><path d="M409.56,166.55a22.88,22.88,0,0,0-12.6-5.22c-.12,0-.19.08-.08.11a56.63,56.63,0,0,1,12.66,5.15S409.59,166.57,409.56,166.55Z" style="fill:#263238"></path><path d="M406.26,171.31a25.7,25.7,0,0,0-12.89-4.45c-.12,0-.18.09-.07.12a60.31,60.31,0,0,1,12.94,4.38S406.29,171.33,406.26,171.31Z" style="fill:#263238"></path><path d="M359.16,215.58l13.55-13.68S353.05,188.82,343,186.77s-5.49,4.92-1.55,9.79S359.16,215.58,359.16,215.58Z" style="fill:#c7c7c7"></path><path d="M356.72,212c1.72-2.07,3.71-3.95,5.61-5.86s4-3.78,6-5.69c.05-.06.15,0,.1.09-1.87,2-3.65,4-5.58,5.89a75.06,75.06,0,0,1-6.08,5.62A0,0,0,0,1,356.72,212Z" style="fill:#263238"></path><path d="M365.36,209.32l-6.2,6.26s-13.74-14.15-17.67-19c-2.07-2.55-4.29-5.69-4.49-7.79Z" style="fill:#263238"></path><path d="M309.59,261.05c.14.14,58-4.39,58.51-5,.67-.89-14.42-57.9-24.84-69.63-2.61-2.93-10.94-3.37-14,.17-9,10.24-10.37,17.33-12.32,24a188.09,188.09,0,0,0-4.25,21.66C310.54,246.13,309.07,260.55,309.59,261.05Z" style="fill:#c7c7c7"></path><path d="M344.38,184.46c3.23-.07,7.95-1.77,10.24-1.06a2.75,2.75,0,0,1,2,2.58s2.05-1.69,4-.7c1,.51,1.09,2.58,1.09,2.58a3.29,3.29,0,0,1,3.4-.3,3.15,3.15,0,0,1,1.23,2.74s2.21-.46,3.33.78c2.28,2.52-3.21,14.79-8.57,14.66-2.5-.05-1-3-1-3s-3.18,3.68-5.74,2.62-.37-4.75-.37-4.75-3.11,3.54-5.65,2.17.17-4.74.17-4.74-3.07,1.91-4.78.41c-2.81-2.47,3.6-5.8,4.17-8.78l-3.78-3.48Z" style="fill:#c95f50"></path><path d="M349.35,183.73c-3.06-.19-4.85-4.89-7.75-5.5-3.92-.82-2.21,4.77,2.58,8l4.16,1.84Z" style="fill:#c95f50"></path><path d="M366.43,190.61s.07,0,.07,0a23.32,23.32,0,0,1-6.41,12.3c-.1.1-.32,0-.22-.16A47.65,47.65,0,0,0,366.43,190.61Z" style="fill:#263238"></path><path d="M361.82,187.81c0-.05.1,0,.09,0a21.82,21.82,0,0,1-7.82,13c-.14.11-.38.06-.22-.08C356.53,198.41,360.39,191.91,361.82,187.81Z" style="fill:#263238"></path><path d="M348.18,198.2c3.95-3.22,6.47-7.38,8.45-12,0-.06.11,0,.1,0a19.92,19.92,0,0,1-3.32,7.47,13.54,13.54,0,0,1-5.11,4.66C348.21,198.38,348.1,198.27,348.18,198.2Z" style="fill:#263238"></path><path d="M342.72,194.92c-2.41.45-8.09-3.37-10.6-6.91-.17-.24-.09-3-.15-6.4,0-2.05-.14-4.33-.38-6.41L345,176.86a33.47,33.47,0,0,0-.33,8.11,4.4,4.4,0,0,0,.19.85,1.3,1.3,0,0,1,0,.13C345.31,187.54,346.49,194.21,342.72,194.92Z" style="fill:#c95f50"></path><path d="M332,181c3.09,3.63,7.57,7,13.11,5.74-.07-.34-.14-.61-.19-.81a.33.33,0,0,1,0-.13,4.24,4.24,0,0,1-.19-.85,33.47,33.47,0,0,1,.33-8.11l-13.38-1.66C331.81,177.08,331.91,179.13,332,181Z" style="fill:#263238"></path><path d="M327.08,160.58c-.87,4.78,3.14,17.83,6.77,20.42,5.27,3.74,13.11,3.24,16.1-2.91,2.9-6-2.63-22.88-6.62-25.15C337.46,149.6,328.35,153.52,327.08,160.58Z" style="fill:#c95f50"></path><path d="M339.7,166.41s-.06.06,0,.1c.33.86.56,1.9-.12,2.46,0,0,0,.06,0,.05C340.48,168.55,340.15,167.17,339.7,166.41Z" style="fill:#263238"></path><path d="M338.61,165.78c-1.44.38-.57,3.22.76,2.86S339.81,165.45,338.61,165.78Z" style="fill:#263238"></path><path d="M344.84,164.64s.08,0,.09.05c.24.89.67,1.87,1.55,1.91,0,0,0,.05,0,.05C345.48,166.82,344.93,165.51,344.84,164.64Z" style="fill:#263238"></path><path d="M345.34,163.48c1.38-.54,2.37,2.26,1.09,2.76S344.19,163.93,345.34,163.48Z" style="fill:#263238"></path><path d="M337.09,164.82a11.19,11.19,0,0,0,1-.72c.37-.29.7-.47.86-.93a.64.64,0,0,0-.32-.7,1.58,1.58,0,0,0-1.55.31,2.29,2.29,0,0,0-1,1.33A.67.67,0,0,0,337.09,164.82Z" style="fill:#263238"></path><path d="M346,162.07c-.41.05-.8,0-1.22.05a1.93,1.93,0,0,1-1.25-.18.63.63,0,0,1-.19-.74,1.58,1.58,0,0,1,1.4-.74,2.31,2.31,0,0,1,1.59.43A.67.67,0,0,1,346,162.07Z" style="fill:#263238"></path><path d="M341.39,174.82a1.41,1.41,0,0,0,.9.29,2.47,2.47,0,0,0,.87-.51,0,0,0,0,1,.06,0,1.25,1.25,0,0,1-1,.82,1,1,0,0,1-.93-.57S341.35,174.8,341.39,174.82Z" style="fill:#263238"></path><path d="M341.5,171.9a3.14,3.14,0,0,0,2.41.72,4.16,4.16,0,0,0,1.09-.28.72.72,0,0,0,.2-.09l.18-.09a.22.22,0,0,0,.12-.25h0a.36.36,0,0,0,0-.09h0l0-.07c-.19-.69-.58-1.69-.58-1.69.29,0,1.72.22,1.6-.12a47.58,47.58,0,0,0-3.94-8.7c0-.09-.2,0-.16.07.92,2.8,2.33,5.42,3.3,8.22a5.66,5.66,0,0,0-1.54,0c-.09.06.77,1.94.83,2.25a.1.1,0,0,1,0,0,4.4,4.4,0,0,1-3.4,0C341.48,171.77,341.43,171.85,341.5,171.9Z" style="fill:#263238"></path><path d="M344.5,172.12a3.71,3.71,0,0,1-1.09,1.54,1.7,1.7,0,0,1-1,.36c-.76,0-1-.61-1-1.2a3.82,3.82,0,0,1,.05-.94A4.86,4.86,0,0,0,344.5,172.12Z" style="fill:#263238"></path><path d="M343.41,173.66a1.7,1.7,0,0,1-1,.36c-.76,0-1-.61-1-1.2A1.71,1.71,0,0,1,343.41,173.66Z" style="fill:#ff99ba"></path><path d="M346.06,157c-3.56,4.24-10.85,1.36-10.85,1.36a5,5,0,0,1-4,4.38s1.2,7.68-.76,8.21c-3,.82-6.75-9.07-6.36-11.33a5.52,5.52,0,0,1,2.78-3.47,5.11,5.11,0,0,1,1.21-3.53c1.61-2.13,9.24-2,9.24-2a6.8,6.8,0,0,1,1.13-2.94,1.91,1.91,0,0,1,2.72-.5,4.63,4.63,0,0,0-.2,2c.25,2.28,2,1.78,1.47-.19a3.27,3.27,0,0,0-1.27-1.85c.52-1.53,1.84-2.35,2.9-1.9C346,146.11,349,153.49,346.06,157Z" style="fill:#263238"></path><path d="M331.21,171.11s-3.61-3.88-5.41-2.54,1.32,7.26,3.73,7.8a2.36,2.36,0,0,0,3-1.69Z" style="fill:#c95f50"></path><path d="M326.74,170.24a0,0,0,0,0,0,.07,6,6,0,0,1,3.56,3.26,1.29,1.29,0,0,0-2-.08s0,.09.05.07a1.45,1.45,0,0,1,1.65.29A7.59,7.59,0,0,1,331,175c.09.13.34,0,.27-.14l0,0C331,172.79,329,170.15,326.74,170.24Z" style="fill:#263238"></path><path d="M320,193.79c-4.69,5.61-22.14,26.7-26.35,28-7.26,2.21-35.06,1.24-37.64,3.54s-9,18.09-7.12,20.81,44.13,2.26,52-.68c10.19-3.8,22.54-32.92,27.83-46.44C333.29,187.39,329.1,182.93,320,193.79Z" style="fill:#c95f50"></path><path d="M320.11,220.9l-17.5-8S316.4,193.7,325,188.25s6.88,2.68,4.91,8.62S320.11,220.9,320.11,220.9Z" style="fill:#c7c7c7"></path><path d="M321.14,216.72c-2.33-1.34-4.86-2.4-7.31-3.51s-5.09-2.12-7.62-3.21c-.07,0-.13.09-.06.12,2.44,1.18,4.82,2.46,7.3,3.55a76.75,76.75,0,0,0,7.66,3.11S321.18,216.74,321.14,216.72Z" style="fill:#263238"></path><path d="M327.25,206.27c-.59,1-1.19,2-1.8,3,.88-2.24,1.75-4.49,2.52-6.76a.05.05,0,0,0-.1,0c-1.43,3-2.76,6.12-4.06,9.21s-2.61,6-3.65,9c-.23-.07-.47-.13-.7-.21s-.16.13-.07.18l.79.42a.19.19,0,0,0,.26-.07c1.54-3,2.77-6.15,4-9.24l.6-1.53a41.48,41.48,0,0,0,2.34-3.9A.09.09,0,0,0,327.25,206.27Z" style="fill:#263238"></path><path d="M330,460c-1.91.64-56.54.48-58.62-.84-.78-.49-1.23-8.46-1.49-18.09-.05-2.08-.1-4.22-.13-6.41,0-2.58-.07-5.2-.09-7.74-.07-11.4.09-21.45.09-21.45H305.3v29.19l-.19,6.41s20.89,9.42,23,11.12S331.89,459.34,330,460Z" style="fill:#c95f50"></path><path d="M330,460c-1.91.64-56.54.48-58.62-.84-.78-.49-1.23-8.46-1.49-18.09-.05-2.08-.1-4.22-.13-6.41,0-2.58-.07-5.2-.09-7.74h35.64v7.74l-.19,6.41s20.89,9.42,23,11.12S331.89,459.34,330,460Z" style="fill:#fff"></path><path d="M330.15,460.05c-1.25.4-24.52.49-41.46.14-3.92-.09-7.5-.19-10.39-.32-4-.18-6.66-.4-7.1-.68-1-.62-1.42-12.3-1.64-24.63H305.3l-.18,6.45s21,9.47,23.14,11.17S332.06,459.4,330.15,460.05Z" style="fill:#9327FF"></path><path d="M329.36,457.85c-9.2-.26-46.36-.41-55.48,0-.08,0-.08.06,0,.06,9.12.45,46.28.3,55.48.05C329.56,458,329.56,457.85,329.36,457.85Z" style="fill:#263238"></path><path d="M306.42,439c-3.62-.69-8.05-.15-10.83,2.43-.11.1,0,.25.16.21a50.71,50.71,0,0,1,10.66-2.19A.23.23,0,0,0,306.42,439Z" style="fill:#263238"></path><path d="M309,440.55c-3.62-.69-8-.14-10.83,2.43-.1.1,0,.25.16.21A50.7,50.7,0,0,1,309,441,.23.23,0,0,0,309,440.55Z" style="fill:#263238"></path><path d="M311.64,442.13c-3.62-.68-8.05-.14-10.83,2.43-.1.1,0,.25.16.22a50.84,50.84,0,0,1,10.66-2.19A.23.23,0,0,0,311.64,442.13Z" style="fill:#263238"></path><path d="M314.26,443.72c-3.63-.69-8.06-.15-10.84,2.43-.1.1,0,.25.16.21a51,51,0,0,1,10.66-2.18A.23.23,0,0,0,314.26,443.72Z" style="fill:#263238"></path><path d="M313.14,430.61c-1.42-2-4.07-1.09-5.59.17a19.3,19.3,0,0,0-5.6,8.29.09.09,0,0,0,.08.13.45.45,0,0,0,.57.45c3-1.1,6.33-1.9,8.9-3.89C313,434.6,314.48,432.46,313.14,430.61Zm-6.34,6.45c-1.46.57-2.94,1.07-4.38,1.7,1.1-1.61,2.12-3.26,3.38-4.76a19.87,19.87,0,0,1,1.93-2.07c1.08-1,5.35-3.05,4.7.92C312.07,435,308.54,436.37,306.8,437.06Z" style="fill:#263238"></path><path d="M292.74,438.09c3,1.28,6.42,1.23,9.59,1.55a.45.45,0,0,0,.44-.58.11.11,0,0,0,.05-.15,19.43,19.43,0,0,0-7.5-6.63c-1.78-.84-4.57-1-5.45,1.23S291,437.34,292.74,438.09Zm-1.63-2.59c-1.62-3.68,3-2.74,4.33-2.06a20.41,20.41,0,0,1,2.38,1.52c1.59,1.14,3,2.49,4.46,3.77-1.55-.25-3.11-.36-4.66-.56C295.76,437.94,292,437.54,291.11,435.5Z" style="fill:#263238"></path><path d="M287.26,460.16c-3.36-.09-6.43-.18-9-.29-4-.18-6.66-.4-7.1-.68-.73-.47-1.17-7.3-1.44-15.95Z" style="opacity:0.1"></path><path d="M257.88,253.88s9.61,95.06,9.84,96.27c0,.15,2,72.36,2,72.36h39.21s-2.56-60.44-4-74.54c-1.87-18-13.67-94.09-13.67-94.09Z" style="fill:#455a64"></path><path d="M272.39,353.5q-1.81-30.9-5.45-61.65c-1.38-11.55-3-23.06-4.68-34.57,0-.1-.18-.1-.16,0,3,20.5,5.18,41.15,7,61.78s3.14,41.25,4,61.92c.48,11.71.84,23.42,1.22,35.14a.22.22,0,0,0,.43,0C274.22,395.23,273.62,374.35,272.39,353.5Z" style="fill:#263238"></path><path d="M306.44,416.19a30.51,30.51,0,0,0-3.18-.13c-1.18,0-2.36-.05-3.53-.1q-3.41-.12-6.82-.18c-4.58-.07-9.16,0-13.74.1l-3.78.13c-1.34.05-2.68.17-4,.17-.1,0-.09.12,0,.12,2.3,0,4.64.2,6.94.28s4.54.12,6.82.16c4.57.06,9.16,0,13.73-.15,1.26,0,2.52-.06,3.78-.1.68,0,1.35-.06,2-.09a17.84,17.84,0,0,0,1.79-.06C306.55,416.33,306.54,416.2,306.44,416.19Z" style="fill:#263238"></path><path d="M286.39,253.88,268.36,373c-.34-12.37-.62-22.34-.64-22.87v0c-.23-1.21-9.84-96.27-9.84-96.27Z" style="fill:#263238"></path><path d="M276.75,463.85c-1.95.5-56.42-3.55-58.4-5-.76-.55-.63-8.52-.2-18.14.09-2.08.1-4.24.32-6.41.27-2.72.58-5.45.9-8.07,1.39-11.4,3-20.92,3-20.92l34.47,2.46-2.08,20.61-.84,8.45-.64,6.38s20.16,10.88,22.16,12.72S278.7,463.36,276.75,463.85Z" style="fill:#c95f50"></path><path d="M276.75,463.85c-1.95.5-56.42-3.55-58.4-5-.76-.55-.63-8.52-.2-18.14.09-2.08.1-4.24.32-6.41.27-2.72.58-5.45.9-8.07,10.63.71,25.89,1.61,35.39,2.15l-.84,8.45-.64,6.38s20.16,10.88,22.16,12.72S278.7,463.36,276.75,463.85Z" style="fill:#fff"></path><path d="M276.91,463.94c-2,.5-56.74-3.57-58.73-5.05-.92-.68-.54-12.37.12-24.68L254,436.75l-.64,6.42s20.27,10.94,22.28,12.79S278.88,463.44,276.91,463.94Z" style="fill:#9327FF"></path><path d="M276.29,461.69c-9.16-.91-46.22-3.7-55.35-3.91-.07,0-.08.05,0,.06,9.06,1.1,46.14,3.6,55.34,4C276.48,461.85,276.49,461.71,276.29,461.69Z" style="fill:#263238"></path><path d="M254.75,441.22c-3.56-.94-8-.71-11,1.66-.12.09,0,.25.13.22a50.91,50.91,0,0,1,10.79-1.42A.23.23,0,0,0,254.75,441.22Z" style="fill:#263238"></path><path d="M257.24,443c-3.56-.94-8-.72-11,1.65-.12.09,0,.26.13.23a51,51,0,0,1,10.8-1.43A.23.23,0,0,0,257.24,443Z" style="fill:#263238"></path><path d="M259.74,444.75c-3.57-.94-8-.71-11,1.66-.12.09,0,.25.14.22a50.82,50.82,0,0,1,10.79-1.42A.24.24,0,0,0,259.74,444.75Z" style="fill:#263238"></path><path d="M262.23,446.52c-3.57-.94-8-.72-11,1.65-.11.1,0,.26.14.23A50.91,50.91,0,0,1,262.18,447,.24.24,0,0,0,262.23,446.52Z" style="fill:#263238"></path><path d="M262.05,433.36c-1.28-2.06-4-1.38-5.59-.22a19.33,19.33,0,0,0-6.18,7.86.1.1,0,0,0,.08.14c0,.28.21.59.53.49,3.06-.88,6.45-1.44,9.16-3.24C261.62,437.34,263.25,435.31,262.05,433.36Zm-6.79,6c-1.49.48-3,.87-4.49,1.4a57.21,57.21,0,0,1,3.72-4.52,20.72,20.72,0,0,1,2.06-1.92c1.15-.9,5.56-2.67,4.63,1.25C260.67,437.71,257.05,438.78,255.26,439.34Z" style="fill:#263238"></path><path d="M241.17,439.38c2.88,1.49,6.31,1.68,9.45,2.22.33.06.52-.27.48-.55a.09.09,0,0,0,.06-.14,19.21,19.21,0,0,0-7-7.14c-1.71-1-4.48-1.36-5.52.83S239.48,438.51,241.17,439.38Zm-1.44-2.7c-1.36-3.79,3.22-2.52,4.46-1.75a20.55,20.55,0,0,1,2.27,1.69c1.5,1.25,2.81,2.69,4.18,4.08-1.53-.36-3.08-.59-4.62-.9C244.19,439.44,240.47,438.77,239.73,436.68Z" style="fill:#263238"></path><path d="M291.7,253.36s-2.59,10.69-7.8,17.77c-1.56,2.11-6.53,3.87-8.74,5.48,0,0-3.69,67.28-5.51,76.39-.94,4.7-11.74,72.44-11.74,72.44l-40.27-2.93s15.63-66.89,16.5-72,3.08-69.44,2.88-70.92c-2.35-17.56,6-28.47,6-28.47Z" style="fill:#455a64"></path><path d="M259.47,255a13.15,13.15,0,0,1-4.8,6.89,16.2,16.2,0,0,1-8.71,3c-.53.05-.57.84,0,.85,6.4,0,12.86-4.05,13.79-10.68C259.75,254.84,259.51,254.8,259.47,255Z" style="fill:#263238"></path><path d="M285.19,270.25a36.36,36.36,0,0,0-6.61,3.5c-2.19,1.36-4.22,2.95-6.34,4.42-.08.06,0,.19.08.14,2.22-1.28,4.54-2.39,6.73-3.71a41.68,41.68,0,0,0,6.24-4.18C285.36,270.36,285.29,270.21,285.19,270.25Z" style="fill:#263238"></path><path d="M286.09,256.92c-.34,1.46-.77,2.91-1.15,4.36s-.65,2.76-1.08,4.11a7,7,0,0,1-2.09,3.38c-.56.48-1.17.9-1.77,1.33-.32.24-.67.46-1,.7.05-.2.09-.39.13-.59.13-.56.25-1.12.37-1.67.26-1.24.52-2.47.77-3.71.48-2.43.94-4.9,1.56-7.3a.08.08,0,1,0-.15,0c-.72,2.37-1.5,4.72-2.14,7.12-.32,1.18-1.52,7-1.58,7.42s-.11.86-.15,1.29a5.3,5.3,0,0,0-.06,1.32c0,.1.15.09.2,0h0a5.09,5.09,0,0,0,.44-1.26c.12-.42.24-.84.33-1.26,0-.15.06-.31.09-.46.6-.33,1.16-.77,1.72-1.14s1.21-.78,1.78-1.21a6.62,6.62,0,0,0,2.26-3.2,25,25,0,0,0,.89-4.19c.26-1.66.47-3.33.78-5C286.26,256.87,286.11,256.82,286.09,256.92Z" style="fill:#263238"></path><path d="M257,418.21c-1-.22-2.13-.28-3.17-.4s-2.34-.25-3.51-.4q-3.37-.42-6.77-.77c-4.55-.47-9.13-.84-13.7-1.09l-3.77-.19c-1.34-.07-2.7-.06-4-.18-.1,0-.11.11,0,.12,2.3.19,4.6.6,6.89.88s4.52.51,6.78.74c4.55.46,9.13.81,13.7,1,1.26.06,2.51.15,3.77.22l2,.09c.6,0,1.19.12,1.79.1A.08.08,0,0,0,257,418.21Z" style="fill:#263238"></path><path d="M244.67,253.45a35.87,35.87,0,0,0-4.23,13.39c-.5,5.12.81,10.11,1.06,15.21s-.1,10.5-.33,15.74q-.37,8.1-.71,16.2l-.69,16c-.23,5.33-.35,10.69-.78,16a108.32,108.32,0,0,1-2.83,15.46q-1.82,7.92-3.62,15.83c-2.39,10.5-4.84,21-7,31.56-.26,1.3-.54,2.6-.8,3.91,0,.08.12.12.14,0,2.69-10.38,5.13-20.81,7.54-31.26q1.81-7.83,3.62-15.66c1.17-5.08,2.54-10.16,3.3-15.32a148.71,148.71,0,0,0,1.07-15.5l.69-16q.36-8.09.71-16.19c.24-5.29.54-10.58.59-15.87a71.25,71.25,0,0,0-.3-7.73c-.26-2.57-.77-5.11-1-7.68a33.85,33.85,0,0,1,2.35-14.41c.46-1.19,1-2.35,1.53-3.5C245.18,253.41,244.8,253.2,244.67,253.45Z" style="fill:#263238"></path><path d="M293.09,234.82l1.42,27.68S249.93,259,239,257.18c0,0,13.79-50.21,26.88-62,6.55-5.9,13.48-4.76,17.5.16,1,1.25,12.78,20.25,13.56,27.16C297.58,228.6,293.09,234.82,293.09,234.82Z" style="fill:#9327FF"></path><path d="M281,193.17H268.51a12.89,12.89,0,0,1,1.54-.83h9.64A10.29,10.29,0,0,1,281,193.17Zm2.31,2.17c-.17-.2-.34-.4-.53-.59H266.34a6.37,6.37,0,0,0-.5.43l-.42.39h18.09Zm1.2,1.81H263.93c-.22.26-.44.53-.66.82h21.78C284.88,197.67,284.7,197.4,284.54,197.15Zm1.49,2.4H262.08c-.2.27-.4.54-.58.83h25Zm1.43,2.4h-27c-.18.27-.35.54-.52.83h28C287.78,202.49,287.61,202.22,287.46,202Zm1.39,2.4H259c-.16.27-.32.54-.48.83h30.76Zm1.33,2.4H257.71c-.16.27-.3.55-.45.83h33.37C290.49,207.3,290.34,207,290.18,206.75Zm1.29,2.4h-35l-.41.83h35.86Zm1.24,2.41H255.3c-.14.27-.27.54-.4.82h38.22C293,212.1,292.85,211.83,292.71,211.56Zm1.17,2.4H254.17c-.11.27-.24.54-.36.82h40.45C294.14,214.51,294,214.23,293.88,214Zm1.08,2.4H253.12c-.13.27-.25.55-.37.83h42.56Zm.94,2.4H252.08c-.11.28-.22.55-.34.83h44.45C296.11,219.32,296,219,295.9,218.76Zm.75,2.4H251.1c-.11.28-.22.55-.34.83h46.06A5.57,5.57,0,0,0,296.65,221.16Zm-46.5,2.4c-.12.28-.23.55-.33.83H297a7.66,7.66,0,0,0,0-.83Zm-.93,2.4-.32.83h47.74c.06-.28.11-.55.16-.83Zm-.91,2.41c-.11.28-.21.54-.3.82H296c.1-.27.19-.54.27-.82Zm-.88,2.4-.3.82H295c.13-.26.26-.54.38-.82Zm-.86,2.4-.3.83h47.36c.15-.23.32-.52.5-.83Zm46.56,2.4h-47.4c-.1.28-.19.55-.28.83h47.72Zm.12,2.4H244.91c-.09.28-.19.55-.28.83H293.3Zm.13,2.4H244.11l-.27.83h49.57Zm.12,2.4H243.33c-.1.28-.19.55-.28.83h50.49Zm.12,2.41H242.55c-.09.28-.17.55-.25.82h51.36Zm.12,2.4H241.8c-.08.28-.17.55-.25.82h52.23Zm.13,2.4H241.06l-.25.83h53.1Zm.12,2.4H240.34c-.08.29-.17.56-.24.83H294Zm.12,2.4H239.64c-.09.3-.17.58-.24.83h54.76Zm.13,2.4H239c1.51.25,3.66.53,6.24.83h49.07Zm.11,2.4H260.47c3,.29,6.09.56,9.1.83H294.4Zm.13,2.41h-6.43l6.45.52Z" style="fill:#030402;opacity:0.1"></path><path d="M295.75,218.25c-.56-1.6-1.21-3.16-1.9-4.7-.38-1.52-.75-3-1.08-4.57,0,0-.08,0-.07,0a25.47,25.47,0,0,0,.62,3.36,61.76,61.76,0,0,0-3.11-5.85c0-.08-.16,0-.12.07a74.85,74.85,0,0,1,4.77,10.86,19.25,19.25,0,0,1,1.23,5.76,20.14,20.14,0,0,1-.76,5.67c-.28,1.06-.63,2.1-1,3.12s-.77,2.19-1.24,3.23c0,.08.09.15.12.07.43-.93,1-1.82,1.38-2.75s.77-1.74,1.11-2.63a17.59,17.59,0,0,0,1.22-5.73A16.94,16.94,0,0,0,295.75,218.25Z" style="fill:#263238"></path><path d="M229.42,282.46a15.63,15.63,0,0,1,.52-3.18c.26-1,.54-2.08.83-3.12q.91-3.09,1.94-6.15c1.35-4.09,2.79-8.14,4.27-12.18q4.53-12.09,9.57-24t10.85-23.44c2-3.84,4-7.64,6.3-11.33a48.57,48.57,0,0,1,3.78-5.36,11.47,11.47,0,0,1,1.18-1.27,8,8,0,0,1,1.48-1,8.89,8.89,0,0,1,3.41-1,15.89,15.89,0,0,1,6.7,1l.78.29a4.52,4.52,0,0,1,.9.46,4.38,4.38,0,0,1,1.3,1.5,10,10,0,0,1,1,3.37,33.29,33.29,0,0,1,.15,6.61c-.13,2.17-.38,4.33-.68,6.47-.61,4.29-1.43,8.52-2.33,12.74s-1.92,8.4-3,12.56c-2.19,8.32-4.6,16.58-7.14,24.8S266,276.62,263,284.71c2.53-8.22,5-16.44,7.34-24.72S275,243.45,277,235.11s3.94-16.72,5.09-25.18c.28-2.12.51-4.24.63-6.35a31,31,0,0,0-.18-6.26,8.46,8.46,0,0,0-.83-2.77,2.78,2.78,0,0,0-.79-.92,7.49,7.49,0,0,0-1.27-.53,14.47,14.47,0,0,0-5.94-.92A7.12,7.12,0,0,0,271,193a6.48,6.48,0,0,0-1.16.8,10.67,10.67,0,0,0-1,1.08,48.85,48.85,0,0,0-3.67,5.15c-2.28,3.6-4.33,7.36-6.3,11.16-3.94,7.61-7.5,15.42-11,23.25s-6.84,15.76-10,23.74c-1.61,4-3.17,8-4.65,12-.74,2-1.45,4-2.12,6.08-.34,1-.66,2.05-1,3.08A16.07,16.07,0,0,0,229.42,282.46Z" style="fill:#a6a6a6"></path><rect x="228.92" y="280.19" width="32.02" height="19.45" transform="translate(34.14 -25.69) rotate(6.45)" style="fill:#263238"></rect><rect x="233.71" y="278.34" width="5.64" height="0.84" transform="translate(32.83 -24.82) rotate(6.45)" style="fill:#263238"></rect><rect x="234.84" y="277.52" width="3.56" height="0.84" transform="translate(32.75 -24.84) rotate(6.45)" style="fill:#263238"></rect><polygon points="255.82 281.36 247.36 280.41 248.54 277.9 255.23 278.66 255.82 281.36" style="fill:#263238"></polygon><rect x="249.53" y="279.32" width="4.3" height="1.57" transform="translate(33.09 -26.52) rotate(6.46)" style="fill:#fff"></rect><polygon points="229 280.93 228.83 282.46 229.61 282.83 229.54 283.49 228.27 282.89 228.55 280.39 229.92 280.08 229.85 280.74 229 280.93" style="fill:#263238"></polygon><polygon points="262.45 284.71 262.27 286.25 261.43 286.43 261.36 287.09 262.73 286.78 263.01 284.29 261.74 283.68 261.67 284.34 262.45 284.71" style="fill:#263238"></polygon><path d="M238.93,282.58a55,55,0,0,1-1.56,13.85,55,55,0,0,1,1.56-13.85Z" style="fill:#455a64"></path><path d="M249.57,298.79a7.94,7.94,0,1,1,8.78-7A8,8,0,0,1,249.57,298.79Zm1.73-15.34a7.49,7.49,0,1,0,6.61,8.29A7.5,7.5,0,0,0,251.3,283.45Z" style="fill:#37474f"></path><path d="M256.53,291.58a6.11,6.11,0,1,1-5.38-6.75A6.11,6.11,0,0,1,256.53,291.58Z" style="fill:#455a64"></path><path d="M260.44,283.54a.64.64,0,1,1-.56-.71A.63.63,0,0,1,260.44,283.54Z" style="fill:#9327FF"></path><path d="M240.66,227.29c2.4-2.54.24-7.85,2.19-10.61,2.63-3.74,5.55,2.26,4.05,8.66l-2,4.77Z" style="fill:#c95f50"></path><path d="M231.75,246.3c-.05,0-.09,0-.05.06a26.57,26.57,0,0,0,14.9,5.3c.17,0,.25-.28.06-.32A54.23,54.23,0,0,1,231.75,246.3Z" style="fill:#263238"></path><path d="M233.41,240.38s-.1.06,0,.09A24.89,24.89,0,0,0,250,245.24c.21,0,.37-.25.13-.24C246.07,245.11,237.79,242.69,233.41,240.38Z" style="fill:#263238"></path><path d="M252.87,238.46c-5.8.38-11.14-1.14-16.4-3.49-.07,0-.1.07-.05.11,2.26,1.85,5.77,3,8.57,3.66a15.4,15.4,0,0,0,7.89-.08C253,238.63,253,238.45,252.87,238.46Z" style="fill:#263238"></path><path d="M260.12,197.78c-20.52,13.48-41.07,46.66-34,51.9,6.51,4.79,30.09,7.31,40.05,7.27,5.5,0,10.3-18.33,9.08-19.36-4.33-3.66-22.81-4.61-23.06-4.69-.77-.24,11.51-22.2,16.35-30.77C275.34,190.18,267.82,192.72,260.12,197.78Z" style="fill:#c95f50"></path><path d="M271.92,235.92a42.65,42.65,0,0,1,13.76,5.89c4,2.72,9.72,7.55,11.33,9.69,2.4,3.21,10.4,18.16,6.82,20.17-3.25,1.83-5.12-3.63-5.12-3.63s2.61,5.77-1.16,6.6-5.56-6.53-5.56-6.53,3.2,5.94-.91,6.44c-3.57.42-6.51-7.82-6.51-7.82s4,5.86.43,6.66c-4,.88-10-10.93-10-10.93-7.13-.56-8.86-3-12.27-5.68C262,256.13,271.92,235.92,271.92,235.92Z" style="fill:#c95f50"></path><path d="M292.74,270c-.16-.57-.34-1.14-.5-1.71a29.53,29.53,0,0,0-1.1-3.29c-.44-1-.92-2.06-1.43-3.06s-1.2-2.08-1.71-3.15c0-.09-.16,0-.12.06a29.88,29.88,0,0,1,1.38,3.25c.43,1.07.84,2.15,1.25,3.23s.88,2.07,1.31,3.11c.22.52.41,1.05.6,1.57a8.82,8.82,0,0,0,.59,1.5s.09,0,.09,0A7.61,7.61,0,0,0,292.74,270Z" style="fill:#263238"></path><path d="M299.23,269.25a46.57,46.57,0,0,0-1.9-6.15,32,32,0,0,0-3-5.72.07.07,0,0,0-.12.06c.8,2,1.63,4,2.45,6,.4,1,2.1,5.45,2.33,5.9C299.07,269.43,299.24,269.36,299.23,269.25Z" style="fill:#263238"></path><path d="M286.66,270.86a44.3,44.3,0,0,0-1.88-5.75,42.34,42.34,0,0,0-3.23-5.28c-.05-.06-.15,0-.12.06.94,1.83,1.9,3.65,2.75,5.53.42.91,1.86,4.66,2.33,5.5C286.55,271,286.68,270.94,286.66,270.86Z" style="fill:#263238"></path><path d="M252.88,232.77c-.9-1.23,12-22,16.82-31.72s0-10.26-9.49-3.74c-10.15,7-26.75,23.76-34.54,43.26-2.43,6.09-4.77,10.3,9.89,13.46a171.74,171.74,0,0,0,25.86,3.73l2.23-23.83S253.14,233.12,252.88,232.77Z" style="fill:#9327FF"></path><path d="M256.31,256.36A201.49,201.49,0,0,1,258.5,235c0-.08.14-.06.13,0-.27,1.73-1,13.39-2.18,21.36C256.44,256.48,256.3,256.46,256.31,256.36Z" style="fill:#263238"></path><path d="M241.36,232a19.83,19.83,0,0,1,2.88.07c.9.06,1.79.09,2.68.14l1.16.07-.1,0-1.44-.56c-.48-.19-.95-.42-1.44-.58-.08,0,0-.15,0-.12.48.18,1,.29,1.48.44l1.52.47c.45.14.88.31,1.32.47.87,0,1.73.12,2.59.19.74-1.55,1.7-3,2.57-4.52s1.85-3.09,2.82-4.61,1.91-3,2.91-4.44c.51-.73,3.34-5.27,4.2-6.42,0-.07.14,0,.1.08-.63,1.22-3.53,5.88-4,6.65-.33.55-.66,1.1-1,1.66l.09-.08,1.31-1.09a33.65,33.65,0,0,0,2.57-2.34.08.08,0,0,1,.11.11c-.78.87-1.55,1.77-2.37,2.61q-.6.65-1.26,1.23a7.85,7.85,0,0,1-1.34,1.1h0l-.8,1.36-2.71,4.56c-.82,1.39-1.58,2.85-2.47,4.21,1.76.17,3.51.37,5.27.56l2.68.3c1,.12,1.93.35,2.89.4.09,0,.08.14,0,.13-.94-.11-1.93,0-2.88-.1l-2.69-.15c-1.89-.12-3.78-.22-5.67-.37s-3.72-.36-5.57-.58l-2.79-.33a18.55,18.55,0,0,1-2.69-.39A0,0,0,0,1,241.36,232Z" style="fill:#263238"></path><path d="M271.4,194.27c.31.85,5.18,6,9.14,5.31,1.29-.22.38-7.32.38-7.32l.05-.54.74-7.55-9.32-4.46-1.34-.58s-.06,2.08-.11,4.67c0,.12,0,.24,0,.37s0,.28,0,.42c0,.38,0,.78,0,1.17v.91c0,.31,0,.62,0,.94A48.2,48.2,0,0,0,271.4,194.27Z" style="fill:#c95f50"></path><path d="M270.94,183.8a15.19,15.19,0,0,0,10,7.92l.74-7.55-9.32-4.46-1.34-.58S271,181.21,270.94,183.8Z" style="fill:#263238"></path><path d="M291.09,172.06c2,13.16-5.65,15.85-8.49,16.27-2.58.39-11.4,1.39-14.75-11.49s2.14-18,8-19.18S289.09,158.9,291.09,172.06Z" style="fill:#c95f50"></path><path d="M288.6,168.72c-.32,0-.61,0-.92-.05a1.52,1.52,0,0,1-.93-.23.47.47,0,0,1-.08-.57,1.18,1.18,0,0,1,1.1-.45,1.71,1.71,0,0,1,1.16.44A.5.5,0,0,1,288.6,168.72Z" style="fill:#263238"></path><path d="M280,170.86a8,8,0,0,0,.86-.33,1.5,1.5,0,0,0,.82-.49.49.49,0,0,0-.09-.58,1.17,1.17,0,0,0-1.19-.09,1.71,1.71,0,0,0-1,.76A.51.51,0,0,0,280,170.86Z" style="fill:#263238"></path><path d="M287.36,172.27s.08,0,.08.07c.09.9.34,1.92,1.19,2.11,0,0,0,.05,0,.05C287.62,174.49,287.3,173.14,287.36,172.27Z" style="fill:#263238"></path><path d="M288.05,171.22c1.43-.29,1.91,2.59.59,2.87S286.85,171.47,288.05,171.22Z" style="fill:#263238"></path><path d="M288.68,171.31c.25.12.52.36.8.33s.5-.38.65-.72c0,0,0,0,.05,0,.11.54,0,1.15-.49,1.34s-.9-.23-1.12-.76C288.52,171.44,288.58,171.27,288.68,171.31Z" style="fill:#263238"></path><path d="M283.12,180.3c.24.2.48.47.81.47a2.49,2.49,0,0,0,.95-.32s.06,0,0,0a1.22,1.22,0,0,1-1.1.6,1,1,0,0,1-.78-.74S283.09,180.28,283.12,180.3Z" style="fill:#263238"></path><path d="M286.39,176.51s.38,1.31.48,1.94c0,.06-.14.11-.36.15h0a3,3,0,0,1-3.08-.69c-.06,0,0-.13.08-.1a4.56,4.56,0,0,0,2.86.38c0-.18-.74-2.23-.64-2.25a5.61,5.61,0,0,1,1.49.11c-.73-2.75-1.88-5.37-2.56-8.12,0-.1.12-.15.16-.07a45.33,45.33,0,0,1,3.12,8.64C288,176.86,286.66,176.58,286.39,176.51Z" style="fill:#263238"></path><path d="M286.44,178.18a3.69,3.69,0,0,1-1.14,1.48,1.71,1.71,0,0,1-1,.32c-.75,0-.94-.65-.95-1.24a3.77,3.77,0,0,1,.09-.93A4.79,4.79,0,0,0,286.44,178.18Z" style="fill:#263238"></path><path d="M285.3,179.66a1.71,1.71,0,0,1-1,.32c-.75,0-.94-.65-.95-1.24A1.72,1.72,0,0,1,285.3,179.66Z" style="fill:#ff99ba"></path><path d="M279.7,172.92a3,3,0,0,1,1.71-.15,2.32,2.32,0,0,1,.85.35,2.18,2.18,0,0,1,.64.71l.28.51-.58-.06a6.43,6.43,0,0,0-1.24,0,2.64,2.64,0,0,0-1.2.43,1.86,1.86,0,0,1,1.09-.87,3.73,3.73,0,0,1,1.41-.18l-.3.46a2.07,2.07,0,0,0-1.09-.87A6.93,6.93,0,0,0,279.7,172.92Z" style="fill:#263238"></path><path d="M281.39,175.22a5.16,5.16,0,0,0,1.25-.49c.09-.06.44-.32.42-.39a2.41,2.41,0,0,0-.23-.63,1.7,1.7,0,0,1,.36.61.86.86,0,0,1-.45.58A2.63,2.63,0,0,1,281.39,175.22Z" style="fill:#263238"></path><path d="M268.42,177.47c2.86-1.24,3.05-4.6,3.05-4.6,10.83-2.56,9.76-11.32,9.76-11.32A14.8,14.8,0,0,0,290,166.7a11,11,0,0,0-2.3-6.35,10.56,10.56,0,0,0-12.38-3.8c-3.25,1.13-5.45,4.61-5.45,4.61s-4.75,2.29-5.7,6.25C262.59,173.93,268.42,177.47,268.42,177.47Z" style="fill:#263238"></path><path d="M275.45,160.37c0,1.41-2.39,2.51-5.26,2.45s-5.18-1.27-5.15-2.68,2.39-2.51,5.26-2.45S275.48,159,275.45,160.37Z" style="fill:#9327FF"></path><path d="M274.31,160.05c0,1.08-1.81,1.91-4,1.86s-3.93-1-3.91-2,1.82-1.91,4-1.86S274.34,159,274.31,160.05Z" style="fill:#263238"></path><path d="M274.31,159l-.81-.38c.95-2.05,3.36-2.13,4.51-1.88l-.19.87C277.71,157.56,275.2,157.05,274.31,159Z" style="fill:#9327FF"></path><path d="M264.89,178.41c0-.14-.54-3.54-.6-4.21s3.42-12.34,3.46-12.4l.38.23.42.15c-.22.65-3.34,11.18-3.37,12,.05.61.58,4.09.59,4.12Z" style="fill:#9327FF"></path><path d="M286.84,156.5c0,1.42-2.39,2.51-5.26,2.45s-5.18-1.26-5.15-2.68,2.39-2.51,5.26-2.45S286.87,155.09,286.84,156.5Z" style="fill:#9327FF"></path><path d="M285.67,156.26c0,1.08-1.81,1.91-4,1.87s-3.94-1-3.92-2,1.82-1.91,4-1.86S285.7,155.19,285.67,156.26Z" style="fill:#263238"></path><path d="M270.1,177.53s-3.17-4-5-2.81.75,7,3,7.71a2.25,2.25,0,0,0,2.93-1.4Z" style="fill:#c95f50"></path><path d="M265.89,176.39a0,0,0,0,0,0,.06,5.7,5.7,0,0,1,3.16,3.36,1.25,1.25,0,0,0-1.88-.22s0,.09.05.08a1.39,1.39,0,0,1,1.55.39,6.85,6.85,0,0,1,.81,1.18c.08.13.33,0,.26-.11v0C269.74,179.12,268,176.45,265.89,176.39Z" style="fill:#263238"></path></g><g id="freepik--speech-bubble--inject-94"><path d="M355.16,139.61a13.31,13.31,0,0,1-2.28-7.36c0-9.33,10.25-16.9,22.88-16.9s22.86,7.57,22.86,16.9-10.23,16.89-22.86,16.89A27.45,27.45,0,0,1,360,144.47l-7.88,2Z" style="fill:#fff"></path><path d="M355.16,139.61a13,13,0,0,1-.59-14.16,17.93,17.93,0,0,1,5-5.51,24,24,0,0,1,6.66-3.42,31.08,31.08,0,0,1,7.34-1.5,32,32,0,0,1,7.5.37,26.65,26.65,0,0,1,7.17,2.23,22.29,22.29,0,0,1,6.21,4.28,15.94,15.94,0,0,1,4,6.43,13.08,13.08,0,0,1,.07,7.59,15.82,15.82,0,0,1-3.92,6.48,22.09,22.09,0,0,1-6.15,4.35,29.35,29.35,0,0,1-14.64,2.69,27.17,27.17,0,0,1-14-4.79l.19,0-7.91,1.9-.24.06.1-.23Zm0,0-3,6.91-.14-.17,7.85-2.11.1,0,.09.06a26.84,26.84,0,0,0,13.8,4.44,30.69,30.69,0,0,0,7.29-.51,26.21,26.21,0,0,0,6.92-2.25,21.18,21.18,0,0,0,5.88-4.2,14.78,14.78,0,0,0,3.65-6.11,12.11,12.11,0,0,0-.1-7,14.78,14.78,0,0,0-3.74-6,21.29,21.29,0,0,0-5.92-4.13,25.88,25.88,0,0,0-6.94-2.2,30.55,30.55,0,0,0-14.46.93,20.76,20.76,0,0,0-11.55,8.49,13.15,13.15,0,0,0-1.93,7A13.56,13.56,0,0,0,355.16,139.61Z" style="fill:#263238"></path><path d="M384,132.25a2.38,2.38,0,1,0,2.37-2.38A2.37,2.37,0,0,0,384,132.25Z" style="fill:#263238"></path><path d="M373.38,132.25a2.38,2.38,0,1,0,2.38-2.38A2.38,2.38,0,0,0,373.38,132.25Z" style="fill:#263238"></path><path d="M362.79,132.25a2.37,2.37,0,1,0,2.37-2.38A2.37,2.37,0,0,0,362.79,132.25Z" style="fill:#263238"></path></g></svg>